<mxfile host="app.diagrams.net" modified="2022-07-12T10:45:59.765Z" agent="5.0 (Windows)" etag="n3mpfIW_0IGSYYucvp4s" version="20.0.4" type="github">
  <diagram id="VxK-K9ZygbtOCmr_fMsx" name="Page-1">
    <mxGraphModel dx="1422" dy="762" grid="1" gridSize="10" guides="1" tooltips="1" connect="1" arrows="1" fold="1" page="1" pageScale="1" pageWidth="827" pageHeight="1169" math="0" shadow="0">
      <root>
        <mxCell id="0" />
        <mxCell id="1" parent="0" />
        <mxCell id="qaDeAeeVyoGewmc36EqI-2" value="1361" style="shape=dimension;whiteSpace=wrap;html=1;align=center;points=[];verticalAlign=bottom;spacingBottom=-5;labelBackgroundColor=#ffffff;fontSize=10;" parent="1" vertex="1">
          <mxGeometry x="200" y="400" width="280" height="40" as="geometry" />
        </mxCell>
        <mxCell id="JH5kEhjM8eb6hwlLaGHr-1" value="1361 x 1017 = 1384137  (mm&lt;sup&gt;2&lt;/sup&gt;)" style="rounded=0;whiteSpace=wrap;html=1;fillColor=#d5e8d4;strokeColor=#82b366;fontSize=10;" vertex="1" parent="1">
          <mxGeometry x="200" y="200" width="280" height="160" as="geometry" />
        </mxCell>
        <mxCell id="JH5kEhjM8eb6hwlLaGHr-2" value="1184" style="shape=dimension;direction=south;whiteSpace=wrap;html=1;align=left;points=[];verticalAlign=middle;labelBackgroundColor=#ffffff;fontSize=10;" vertex="1" parent="1">
          <mxGeometry x="120" y="160" width="40" height="200" as="geometry" />
        </mxCell>
        <mxCell id="JH5kEhjM8eb6hwlLaGHr-3" value="1183 x 171 = 202293 (mm&lt;sup&gt;2&lt;/sup&gt;)" style="rounded=0;whiteSpace=wrap;html=1;fillColor=#d5e8d4;strokeColor=#82b366;fontSize=10;" vertex="1" parent="1">
          <mxGeometry x="200" y="160" width="240" height="40" as="geometry" />
        </mxCell>
        <mxCell id="JH5kEhjM8eb6hwlLaGHr-4" value="" style="rounded=0;whiteSpace=wrap;html=1;fillColor=#ffe6cc;strokeColor=#d79b00;fontSize=10;" vertex="1" parent="1">
          <mxGeometry x="480" y="240" width="40" height="120" as="geometry" />
        </mxCell>
        <mxCell id="JH5kEhjM8eb6hwlLaGHr-5" value="171" style="shape=dimension;direction=north;whiteSpace=wrap;html=1;align=right;points=[];verticalAlign=middle;labelBackgroundColor=#ffffff;fontSize=10;" vertex="1" parent="1">
          <mxGeometry x="520" y="160" width="40" height="40" as="geometry" />
        </mxCell>
        <mxCell id="JH5kEhjM8eb6hwlLaGHr-6" value="256" style="shape=dimension;direction=north;whiteSpace=wrap;html=1;align=right;points=[];verticalAlign=middle;labelBackgroundColor=#ffffff;fontSize=10;" vertex="1" parent="1">
          <mxGeometry x="520" y="200" width="40" height="40" as="geometry" />
        </mxCell>
        <mxCell id="JH5kEhjM8eb6hwlLaGHr-7" value="760" style="shape=dimension;direction=north;whiteSpace=wrap;html=1;align=right;points=[];verticalAlign=middle;labelBackgroundColor=#ffffff;fontSize=10;" vertex="1" parent="1">
          <mxGeometry x="520" y="240" width="40" height="120" as="geometry" />
        </mxCell>
        <mxCell id="JH5kEhjM8eb6hwlLaGHr-8" value="1183" style="shape=dimension;direction=west;whiteSpace=wrap;html=1;align=center;points=[];verticalAlign=top;spacingTop=-8;labelBackgroundColor=#ffffff;fontSize=10;" vertex="1" parent="1">
          <mxGeometry x="200" y="80" width="240" height="40" as="geometry" />
        </mxCell>
        <mxCell id="JH5kEhjM8eb6hwlLaGHr-9" value="177" style="shape=dimension;direction=west;whiteSpace=wrap;html=1;align=center;points=[];verticalAlign=top;spacingTop=-8;labelBackgroundColor=#ffffff;fontSize=10;" vertex="1" parent="1">
          <mxGeometry x="440" y="80" width="40" height="40" as="geometry" />
        </mxCell>
        <mxCell id="JH5kEhjM8eb6hwlLaGHr-10" value="265" style="shape=dimension;direction=west;whiteSpace=wrap;html=1;align=center;points=[];verticalAlign=top;spacingTop=-8;labelBackgroundColor=#ffffff;fontSize=10;" vertex="1" parent="1">
          <mxGeometry x="480" y="80" width="40" height="40" as="geometry" />
        </mxCell>
        <mxCell id="JH5kEhjM8eb6hwlLaGHr-11" value="1017" style="shape=dimension;direction=north;whiteSpace=wrap;html=1;align=right;points=[];verticalAlign=middle;labelBackgroundColor=#ffffff;fontSize=10;" vertex="1" parent="1">
          <mxGeometry x="600" y="200" width="40" height="160" as="geometry" />
        </mxCell>
        <mxCell id="JH5kEhjM8eb6hwlLaGHr-12" value="202293&lt;br&gt;&lt;div&gt;+ 1384137&lt;br&gt;= 1586430 &lt;br&gt;&lt;/div&gt;&lt;br&gt;&lt;br&gt;= 1,58 (m&lt;sup&gt;2&lt;/sup&gt;)" style="text;html=1;strokeColor=none;fillColor=none;align=right;verticalAlign=middle;whiteSpace=wrap;rounded=0;fontSize=10;fontColor=none;" vertex="1" parent="1">
          <mxGeometry x="610" y="410" width="100" height="40" as="geometry" />
        </mxCell>
      </root>
    </mxGraphModel>
  </diagram>
</mxfile>
